<svg width="40" height="40" viewBox="0 0 40 40" fill="none" xmlns="http://www.w3.org/2000/svg">
<path d="M12.1689 25.4094C18.2582 27.6361 23.4402 28.0699 29.3125 24.6039C29.2695 24.6644 28.1079 26.2769 25.0532 27.1033C25.6985 27.9298 26.5806 28.8771 26.5806 28.8771C28.5381 28.8771 30.4527 28.353 32.109 27.3452C33.3997 26.5389 34.1311 25.1481 33.9805 23.6968C33.7224 21.2175 33.0985 18.7987 32.1305 16.4807C30.9044 13.4572 27.9573 11.3609 24.5369 11.0585C24.2358 11.0384 24.0207 11.0384 23.8916 11.0384L23.5475 11.3609C27.4841 12.409 29.4417 14.0417 29.4846 14.1022C23.4399 11.2399 16.298 11.1996 10.2102 13.9813C10.2102 13.9813 12.1463 12.1873 16.427 11.2399L16.1689 10.998C15.7171 10.998 15.2869 11.0384 14.8352 11.0988C11.673 11.6027 9.02707 13.6386 7.88693 16.4404C6.89738 18.8592 6.25205 21.3989 6.01544 23.979C5.88637 25.3496 6.57474 26.7002 7.77939 27.4863C9.37123 28.474 11.2642 28.998 13.1788 28.998C13.1788 28.998 13.9532 28.0507 14.7276 27.2041C11.8236 26.3978 10.6404 24.7853 10.6189 24.7248L11.1654 24.9863C11.4922 25.1427 11.8271 25.2844 12.1689 25.4094ZM15.5451 23.6565C14.1468 23.6162 13.0497 22.5076 13.0928 21.1772C13.1358 19.9275 14.2114 18.9197 15.5451 18.8793C16.9434 18.9197 18.0405 20.0283 17.9974 21.3586C17.9328 22.6084 16.8788 23.6162 15.5451 23.6565ZM24.3218 23.6565C22.9235 23.6162 21.8264 22.5076 21.8695 21.1772C21.9125 19.9275 22.9881 18.9197 24.3218 18.8793C25.7201 18.9197 26.8172 20.0283 26.7741 21.3586C26.7311 22.6084 25.6555 23.6162 24.3218 23.6565Z" fill="white"/>
</svg>
