<svg width="40" height="40" viewBox="0 0 40 40" fill="none" xmlns="http://www.w3.org/2000/svg">
<path d="M33.9995 20.1793C33.9414 18.5472 32.6214 17.2726 31.0446 17.328C30.3458 17.3532 29.6812 17.6505 29.1768 18.149C26.9545 16.5772 24.344 15.7157 21.6606 15.6553L22.9268 9.33296L27.1046 10.245C27.2208 11.3583 28.1817 12.1645 29.254 12.0433C30.3263 11.9226 31.1028 10.925 30.9861 9.81171C30.8694 8.69839 29.909 7.89222 28.8367 8.01337C28.2203 8.07867 27.6672 8.45158 27.3618 9.00599L22.5776 8.01337C22.2527 7.9377 21.9274 8.14938 21.8545 8.49211C21.8545 8.49707 21.8545 8.49707 21.8545 8.50202L20.4135 15.5346C17.6963 15.5801 15.0519 16.4466 12.8006 18.0283C11.6554 16.9101 9.85046 16.9655 8.77338 18.1594C7.6963 19.3484 7.74966 21.2224 8.89961 22.3407C9.12301 22.5573 9.37981 22.7438 9.66611 22.8748C9.64658 23.1721 9.64658 23.4693 9.66611 23.7666C9.66611 28.3054 14.7609 31.998 21.0442 31.998C27.3275 31.998 32.4223 28.3104 32.4223 23.7666C32.4418 23.4693 32.4418 23.1721 32.4223 22.8748C33.4027 22.3659 34.0191 21.3179 33.9995 20.1793ZM14.4794 22.2096C14.4794 21.0913 15.3578 20.1793 16.4348 20.1793C17.5119 20.1793 18.3903 21.0913 18.3903 22.2096C18.3903 23.3279 17.5119 24.2399 16.4348 24.2399C15.353 24.2295 14.4794 23.3279 14.4794 22.2096ZM25.8189 27.8618V27.7812C24.4312 28.8643 22.7329 29.4183 20.9956 29.3431C19.2583 29.4188 17.5605 28.8643 16.1724 27.7812C15.988 27.5493 16.0219 27.202 16.2453 27.0106C16.4392 26.8444 16.7159 26.8444 16.915 27.0106C18.0893 27.9023 19.5208 28.3559 20.9761 28.2852C22.4319 28.3658 23.8681 27.9325 25.0567 27.0511C25.2701 26.8345 25.6193 26.8395 25.8284 27.061C26.037 27.2826 26.0323 27.6452 25.8189 27.8618ZM25.5521 24.3858C25.5182 24.3858 25.4892 24.3858 25.4549 24.3858L25.4697 24.3102C24.3926 24.3102 23.5142 23.3982 23.5142 22.2799C23.5142 21.1616 24.3926 20.2496 25.4697 20.2496C26.5467 20.2496 27.4251 21.1616 27.4251 22.2799C27.4685 23.3986 26.6292 24.3403 25.5521 24.3858Z" fill="white"/>
</svg>
