<svg width="40" height="40" viewBox="0 0 40 40" fill="none" xmlns="http://www.w3.org/2000/svg">
<path d="M7.44157 20.0675L13.2021 22.1417L15.4318 29.0598C15.5744 29.5028 16.136 29.6666 16.5088 29.3726L19.7198 26.8471C20.0563 26.5825 20.5358 26.5693 20.8875 26.8157L26.679 30.8723C27.0778 31.152 27.6427 30.9412 27.7427 30.4763L31.9853 10.7875C32.0944 10.2797 31.5773 9.8561 31.0761 10.0431L7.43482 18.842C6.85141 19.059 6.85649 19.8559 7.44157 20.0675ZM15.0724 21.0376L26.3306 14.3479C26.5329 14.228 26.7411 14.4919 26.5673 14.6474L17.2761 22.9799C16.9495 23.2732 16.7388 23.6657 16.6792 24.0917L16.3627 26.3546C16.3208 26.6567 15.8808 26.6867 15.7944 26.3943L14.5772 22.2679C14.4378 21.7972 14.6409 21.2945 15.0724 21.0376Z" fill="white"/>
</svg>
