<svg width="40" height="40" viewBox="0 0 40 40" fill="none" xmlns="http://www.w3.org/2000/svg">
<path d="M33.4542 15.8562C33.4945 15.9749 33.3372 16.057 33.2568 15.9607C31.0966 13.3727 27.8464 11.726 24.2117 11.726C17.7077 11.726 12.4352 16.9985 12.4352 23.5025C12.4352 26.368 13.4586 28.9944 15.1599 31.0363C15.2403 31.1327 15.131 31.2728 15.0214 31.2116C11.091 29.0139 8.43376 24.8115 8.43376 19.9884C8.43376 12.8917 14.1867 7.13874 21.2834 7.13874C26.9345 7.13874 31.7335 10.7867 33.4542 15.8562Z" fill="#FFFDFE"/>
<path d="M35.9969 29.675C35.9969 30.3925 35.4153 30.9741 34.6978 30.9741C33.9804 30.9741 33.3987 30.3925 33.3987 29.675C33.3987 28.9575 33.9804 28.3759 34.6978 28.3759C35.4153 28.3759 35.9969 28.9575 35.9969 29.675Z" fill="#FFFDFE"/>
<path d="M34.8272 29.2673C35.1414 29.4808 35.2242 29.9096 34.9983 30.2151C33.006 32.909 30.2666 34.9666 27.1131 36.1278C23.744 37.3683 20.0712 37.5234 16.6096 36.5713C13.1479 35.6193 10.071 33.6078 7.81017 30.8189C5.54933 28.03 4.21793 24.6035 4.00264 21.0197C3.78735 17.436 4.69895 13.8747 6.60964 10.8352C8.52034 7.79571 11.3343 5.43032 14.6571 4.07068C17.9799 2.71105 21.6448 2.42533 25.1382 3.25359C28.408 4.02886 31.3741 5.74376 33.6745 8.17974C33.9354 8.45598 33.9045 8.89159 33.6181 9.1412C33.3316 9.39082 32.8981 9.35979 32.6363 9.08446C30.5253 6.86456 27.8111 5.30137 24.8208 4.59237C21.6069 3.83037 18.2351 4.09323 15.1782 5.3441C12.1212 6.59496 9.53234 8.77112 7.7745 11.5675C6.01667 14.3638 5.17799 17.6402 5.37606 20.9372C5.57413 24.2342 6.79901 27.3866 8.87898 29.9524C10.959 32.5182 13.7897 34.3688 16.9744 35.2447C20.1592 36.1206 23.5381 35.9779 26.6377 34.8366C29.5217 33.7747 32.0291 31.8979 33.8592 29.4412C34.0862 29.1365 34.5129 29.0538 34.8272 29.2673Z" fill="#FFFDFE"/>
<path d="M34.4741 9.52262C34.0709 10.1161 33.2629 10.2703 32.6695 9.86707C32.076 9.46386 31.9218 8.65591 32.325 8.06247C32.7282 7.46902 33.5362 7.31481 34.1296 7.71802C34.7231 8.12123 34.8773 8.92917 34.4741 9.52262Z" fill="#FFFDFE"/>
</svg>
