<svg width="120" height="23" viewBox="0 0 120 23" fill="none" xmlns="http://www.w3.org/2000/svg">
<g clip-path="url(#clip0_188_10993)">
<path d="M67.3516 17.0197H69.9183V7.34599H67.3516V17.0197ZM67.3516 5.83744H69.9183V3.53687H67.3516V5.83744Z" fill="white"/>
<path d="M71.5723 20.1878H74.1391V15.926H74.1765C74.7236 16.7558 75.611 17.3026 76.9695 17.3026C79.4609 17.3026 81.1596 15.3226 81.1596 12.1924C81.1596 9.17517 79.5176 7.08203 76.9508 7.08203C75.6297 7.08203 74.7236 7.70436 74.1011 8.5529H74.0444V7.34603H71.5723V20.1878ZM76.4224 15.1718C74.8937 15.1718 74.0824 14.0215 74.0824 12.2678C74.0824 10.5329 74.7236 9.15636 76.3282 9.15636C77.9135 9.15636 78.5548 10.4386 78.5548 12.2678C78.5548 14.0969 77.7247 15.1718 76.4224 15.1718Z" fill="white"/>
<path d="M86.2792 17.3026C88.6951 17.3026 90.3559 16.1335 90.3559 14.1912C90.3559 11.9284 88.563 11.4758 86.9397 11.1364C85.5619 10.8535 84.2788 10.778 84.2788 9.94836C84.2788 9.25063 84.9394 8.87349 85.9395 8.87349C87.0344 8.87349 87.695 9.25063 87.8078 10.2878H90.1291C89.9408 8.34549 88.525 7.08203 85.9775 7.08203C83.7691 7.08203 82.0329 8.08149 82.0329 10.1746C82.0329 12.2866 83.7317 12.758 85.4678 13.0975C86.7889 13.3615 88.0153 13.4558 88.0153 14.3798C88.0153 15.0586 87.374 15.4924 86.2417 15.4924C85.0902 15.4924 84.2975 15.002 84.128 13.8895H81.75C81.9008 15.9449 83.4674 17.3026 86.2792 17.3026Z" fill="white"/>
<path d="M100.101 17.0197V7.34595H97.5343V12.9277C97.5343 14.2099 96.7983 15.1151 95.5906 15.1151C94.4957 15.1151 93.9865 14.4928 93.9865 13.3614V7.34595H91.4385V13.7951C91.4385 15.9071 92.6462 17.2837 94.7979 17.2837C96.157 17.2837 96.9117 16.7745 97.5722 15.8883H97.6289V17.0197H100.101Z" fill="white"/>
<path d="M101.761 17.0198H104.328V11.4004C104.328 10.118 105.026 9.28836 106.064 9.28836C107.008 9.28836 107.555 9.85403 107.555 10.9478V17.0198H110.122V11.4004C110.122 10.118 110.782 9.28836 111.858 9.28836C112.802 9.28836 113.349 9.85403 113.349 10.9478V17.0198H115.916V10.514C115.916 8.40203 114.764 7.08203 112.726 7.08203C111.499 7.08203 110.48 7.72317 109.819 8.77917H109.782C109.31 7.7609 108.329 7.08203 107.102 7.08203C105.762 7.08203 104.819 7.7609 104.29 8.64717H104.233V7.34603H101.761V17.0198Z" fill="white"/>
<path d="M0.454102 17.0197H3.02081V3.53687H0.454102V17.0197Z" fill="white"/>
<path d="M9.29624 17.3026C12.297 17.3026 14.3541 15.0775 14.3541 12.1924C14.3541 9.30717 12.297 7.08203 9.29624 7.08203C6.29541 7.08203 4.23828 9.30717 4.23828 12.1924C4.23828 15.0775 6.29541 17.3026 9.29624 17.3026ZM9.29624 15.3415C7.71092 15.3415 6.84273 14.078 6.84273 12.1924C6.84273 10.3066 7.71092 9.02436 9.29624 9.02436C10.8627 9.02436 11.7497 10.3066 11.7497 12.1924C11.7497 14.078 10.8627 15.3415 9.29624 15.3415Z" fill="white"/>
<path d="M19.8123 20.3198C21.2466 20.3198 22.4922 19.9804 23.3037 19.226C24.0209 18.566 24.455 17.642 24.455 16.2844V7.34603H21.9827V8.36436H21.9449C21.3598 7.55349 20.4728 7.08203 19.265 7.08203C16.8115 7.08203 15.0752 8.93003 15.0752 11.8152C15.0752 14.738 17.189 16.4352 19.3405 16.4352C20.5672 16.4352 21.3032 15.9449 21.8694 15.3038H21.926V16.3598C21.926 17.6798 21.2277 18.3775 19.7745 18.3775C18.5855 18.3775 18.0382 17.906 17.8306 17.3026H15.2828C15.547 19.1884 17.1701 20.3198 19.8123 20.3198ZM19.7745 14.3798C18.4534 14.3798 17.5853 13.418 17.5853 11.7775C17.5853 10.1558 18.4534 9.13749 19.7556 9.13749C21.3032 9.13749 22.0582 10.3444 22.0582 11.7586C22.0582 13.1918 21.3976 14.3798 19.7745 14.3798Z" fill="white"/>
<path d="M30.6947 17.3026C33.6954 17.3026 35.7526 15.0775 35.7526 12.1924C35.7526 9.30717 33.6954 7.08203 30.6947 7.08203C27.6939 7.08203 25.6367 9.30717 25.6367 12.1924C25.6367 15.0775 27.6939 17.3026 30.6947 17.3026ZM30.6947 15.3415C29.1093 15.3415 28.2412 14.078 28.2412 12.1924C28.2412 10.3066 29.1093 9.02436 30.6947 9.02436C32.2611 9.02436 33.1482 10.3066 33.1482 12.1924C33.1482 14.078 32.2611 15.3415 30.6947 15.3415Z" fill="white"/>
<path d="M116.849 5.75776C116.849 5.32382 117.201 4.97205 117.635 4.97205H119.208C119.642 4.97205 119.995 5.32382 119.995 5.75776C119.995 6.1917 119.642 6.54348 119.208 6.54348H117.635C117.201 6.54348 116.849 6.1917 116.849 5.75776Z" fill="white"/>
<path fill-rule="evenodd" clip-rule="evenodd" d="M51.3178 0.781616C57.3977 0.781616 62.3271 5.70649 62.3271 11.7816C62.3271 17.8568 57.3977 22.7816 51.3178 22.7816C45.2376 22.7816 40.3086 17.8568 40.3086 11.7816C40.3086 5.70649 45.2376 0.781616 51.3178 0.781616ZM50.9198 1.60474C49.6639 1.78135 48.4679 2.78971 47.5396 4.47619C47.2703 4.96537 47.0273 5.50582 46.8156 6.08936C48.0779 5.77241 49.4646 5.58555 50.9198 5.55664V1.60474ZM45.8851 6.35356C46.1485 5.52789 46.4705 4.76824 46.8423 4.09297C47.3024 3.25694 47.8486 2.53499 48.464 1.98049C45.1178 2.95149 42.4803 5.58685 41.5084 8.93025C42.0634 8.31541 42.7859 7.7697 43.6227 7.3099C44.2985 6.93848 45.0588 6.61662 45.8851 6.35356ZM45.6207 7.28322C45.3035 8.54448 45.1165 9.92999 45.0876 11.384H41.1324C41.3091 10.1291 42.3183 8.93416 44.0062 8.00664C44.4958 7.73758 45.0367 7.49481 45.6207 7.28322ZM45.8836 11.384C45.9164 9.79722 46.1451 8.30749 46.5234 6.99123C47.8407 6.61327 49.3317 6.3848 50.9198 6.35196V8.06956C50.3274 9.58503 49.119 10.7923 47.6022 11.384H45.8836ZM45.0876 12.1792H41.1324C41.3091 13.4341 42.3183 14.629 44.0062 15.5566C44.4958 15.8257 45.0367 16.0684 45.6207 16.28C45.3035 15.0188 45.1165 13.6332 45.0876 12.1792ZM46.5234 16.572C46.1451 15.2557 45.9164 13.766 45.8836 12.1792H47.6022C49.119 12.771 50.3274 13.9782 50.9198 15.4937V17.2113C49.3317 17.1784 47.8407 16.95 46.5234 16.572ZM45.8851 17.2097C45.0588 16.9466 44.2985 16.6248 43.6227 16.2533C42.7859 15.7935 42.0634 15.2478 41.5084 14.633C42.4803 17.9764 45.1178 20.6118 48.464 21.5827C47.8486 21.0282 47.3024 20.3063 46.8423 19.4702C46.4705 18.795 46.1485 18.0353 45.8851 17.2097ZM50.9198 21.9585C49.6639 21.7819 48.4679 20.7735 47.5396 19.087C47.2703 18.5979 47.0273 18.0574 46.8156 17.4739C48.0779 17.7908 49.4646 17.9777 50.9198 18.0066V21.9585ZM54.1715 21.5827C54.7869 21.0282 55.333 20.3063 55.7932 19.4702C56.1647 18.795 56.4873 18.0353 56.7504 17.2097C57.5767 16.9466 58.3368 16.6248 59.0128 16.2533C59.8495 15.7935 60.5722 15.2478 61.1271 14.633C60.155 17.9764 57.5178 20.6118 54.1715 21.5827ZM55.8201 17.4739C55.6082 18.0574 55.3649 18.5979 55.0957 19.087C54.1676 20.7735 52.9716 21.7819 51.7156 21.9585V18.0066C53.1709 17.9777 54.5575 17.7908 55.8201 17.4739ZM57.0146 16.28C57.5987 16.0684 58.1398 15.8257 58.6291 15.5566C60.3174 14.6291 61.3264 13.4341 61.5031 12.1792H57.548C57.5189 13.6332 57.3317 15.0188 57.0146 16.28ZM56.7521 12.1792C56.719 13.766 56.4906 15.2557 56.1119 16.572C54.7947 16.95 53.3038 17.1784 51.7156 17.2113V15.4949C52.3079 13.9789 53.5166 12.7711 55.0338 12.1792H56.7521ZM57.548 11.384H61.5031C61.3264 10.1291 60.3174 8.93416 58.6291 8.00664C58.1398 7.73758 57.5987 7.49481 57.0146 7.28322C57.3317 8.54448 57.5189 9.92999 57.548 11.384ZM56.1119 6.99123C56.4906 8.30749 56.719 9.79722 56.7521 11.384H55.0338C53.5166 10.7921 52.3079 9.58431 51.7156 8.06829V6.35196C53.3038 6.3848 54.7947 6.61327 56.1119 6.99123ZM56.7504 6.35356C57.5767 6.61662 58.3368 6.93848 59.0128 7.3099C59.8495 7.7697 60.5722 8.31541 61.1271 8.93025C60.155 5.58685 57.5178 2.95149 54.1715 1.98049C54.7869 2.53499 55.333 3.25694 55.7932 4.09297C56.1647 4.76824 56.4873 5.52789 56.7504 6.35356ZM51.7156 1.60474C52.9716 1.78135 54.1676 2.78971 55.0957 4.47619C55.3649 4.96538 55.6082 5.50582 55.8201 6.08936C54.5575 5.77241 53.1709 5.58555 51.7156 5.55664V1.60474Z" fill="white"/>
</g>
<defs>
<clipPath id="clip0_188_10993">
<rect width="120" height="22" fill="white" transform="translate(0 0.781616)"/>
</clipPath>
</defs>
</svg>
