<svg width="148" height="36" viewBox="0 0 148 36" fill="none" xmlns="http://www.w3.org/2000/svg">
<g clip-path="url(#clip0_188_11023)">
<path d="M45.3438 24.8019H55.6787V21.7287H49.017V10.1531H45.3438V24.8019Z" fill="#697D94"/>
<path d="M61.8013 22.7531C60.3278 22.7531 59.56 21.4828 59.56 19.5775C59.56 17.6721 60.3278 16.3814 61.8013 16.3814C63.2748 16.3814 64.0634 17.6721 64.0634 19.5775C64.0634 21.4828 63.2748 22.7531 61.8013 22.7531ZM61.822 25.1297C65.2463 25.1297 67.4876 22.7326 67.4876 19.5775C67.4876 16.4223 65.2463 14.0253 61.822 14.0253C58.4186 14.0253 56.1357 16.4223 56.1357 19.5775C56.1357 22.7326 58.4186 25.1297 61.822 25.1297Z" fill="#697D94"/>
<path d="M73.4155 28.4282C74.9928 28.4282 76.3832 28.0799 77.3171 27.2604C78.168 26.5023 78.7283 25.355 78.7283 23.7774V14.3121H75.4908V15.4389H75.4493C74.8267 14.5579 73.8721 14.0048 72.4609 14.0048C69.8253 14.0048 67.999 16.1765 67.999 19.2496C67.999 22.4662 70.2196 24.2282 72.6062 24.2282C73.8929 24.2282 74.7022 23.716 75.3248 23.0194H75.4078V24.0643C75.4078 25.3345 74.806 26.0721 73.374 26.0721C72.2534 26.0721 71.693 25.6009 71.5063 25.0477H68.2273C68.5594 27.2399 70.4894 28.4282 73.4155 28.4282ZM73.3948 21.7492C72.1289 21.7492 71.2987 20.7248 71.2987 19.1472C71.2987 17.5492 72.1289 16.5248 73.3948 16.5248C74.806 16.5248 75.5531 17.7131 75.5531 19.1267C75.5531 20.6018 74.8682 21.7492 73.3948 21.7492Z" fill="#697D94"/>
<path d="M85.3843 22.7531C83.9108 22.7531 83.143 21.4828 83.143 19.5775C83.143 17.6721 83.9108 16.3814 85.3843 16.3814C86.8578 16.3814 87.6464 17.6721 87.6464 19.5775C87.6464 21.4828 86.8578 22.7531 85.3843 22.7531ZM85.4051 25.1297C88.8293 25.1297 91.0706 22.7326 91.0706 19.5775C91.0706 16.4223 88.8293 14.0253 85.4051 14.0253C82.0016 14.0253 79.7188 16.4223 79.7188 19.5775C79.7188 22.7326 82.0016 25.1297 85.4051 25.1297Z" fill="#697D94"/>
<path d="M92.0586 24.8019H95.4413V14.3121H92.0586V24.8019ZM92.0586 12.8575H95.4413V10.1531H92.0586V12.8575Z" fill="#697D94"/>
<path d="M96.9092 28.2643H100.292V23.716H100.333C100.998 24.597 101.973 25.1296 103.343 25.1296C106.123 25.1296 107.97 22.9579 107.97 19.557C107.97 16.4018 106.248 14.0048 103.426 14.0048C101.973 14.0048 100.935 14.6399 100.209 15.5823H100.147V14.3121H96.9092V28.2643ZM102.471 22.5482C101.018 22.5482 100.188 21.3804 100.188 19.6799C100.188 17.9794 100.935 16.6887 102.409 16.6887C103.861 16.6887 104.546 17.877 104.546 19.6799C104.546 21.4623 103.758 22.5482 102.471 22.5482Z" fill="#697D94"/>
<path d="M113.478 25.1296C116.259 25.1296 118.313 23.9413 118.313 21.6467C118.313 18.9628 116.114 18.4916 114.246 18.1843C112.897 17.9384 111.693 17.836 111.693 17.0984C111.693 16.4428 112.337 16.1355 113.167 16.1355C114.101 16.1355 114.744 16.4223 114.868 17.3648H117.981C117.815 15.2955 116.197 14.0048 113.187 14.0048C110.676 14.0048 108.601 15.1521 108.601 17.3648C108.601 19.8233 110.573 20.315 112.42 20.6223C113.831 20.8682 115.118 20.9706 115.118 21.9131C115.118 22.5892 114.474 22.9579 113.457 22.9579C112.337 22.9579 111.631 22.4457 111.506 21.4009H108.311C108.414 23.716 110.365 25.1296 113.478 25.1296Z" fill="#697D94"/>
<path d="M122.908 25.1092C124.382 25.1092 125.316 24.5355 126.084 23.5112H126.146V24.8019H129.383V14.3121H126.001V20.1716C126.001 21.4214 125.295 22.2819 124.133 22.2819C123.054 22.2819 122.535 21.6468 122.535 20.4995V14.3121H119.173V21.196C119.173 23.5316 120.46 25.1092 122.908 25.1092Z" fill="#697D94"/>
<path d="M130.854 24.8018H134.237V18.9218C134.237 17.6721 134.86 16.7911 135.918 16.7911C136.935 16.7911 137.412 17.4467 137.412 18.5735V24.8018H140.795V18.9218C140.795 17.6721 141.397 16.7911 142.476 16.7911C143.493 16.7911 143.97 17.4467 143.97 18.5735V24.8018H147.353V17.9794C147.353 15.6233 146.149 14.0048 143.742 14.0048C142.372 14.0048 141.231 14.5784 140.401 15.8487H140.359C139.82 14.7218 138.761 14.0048 137.371 14.0048C135.835 14.0048 134.818 14.7218 134.154 15.8077H134.092V14.3121H130.854V24.8018Z" fill="#697D94"/>
<path fill-rule="evenodd" clip-rule="evenodd" d="M18.3859 35.0457C27.9372 35.0457 35.68 27.4018 35.68 17.9726C35.68 8.54334 27.9372 0.899414 18.3859 0.899414C8.83462 0.899414 1.0918 8.54334 1.0918 17.9726C1.0918 27.4018 8.83462 35.0457 18.3859 35.0457ZM23.7811 8.85281C24.0437 7.9319 23.1384 7.38733 22.3117 7.96882L10.7706 16.0856C9.87394 16.7162 10.015 17.9726 10.9824 17.9726H14.0215V17.9493H19.9446L15.1184 19.6304L12.9908 27.0924C12.7282 28.0133 13.6333 28.5578 14.4602 27.9763L26.0013 19.8596C26.8979 19.229 26.7568 17.9726 25.7895 17.9726H21.1807L23.7811 8.85281Z" fill="#697D94"/>
</g>
<defs>
<clipPath id="clip0_188_11023">
<rect width="147" height="35" fill="white" transform="translate(0.5 0.781616)"/>
</clipPath>
</defs>
</svg>
