<svg width="146" height="25" viewBox="0 0 146 25" fill="none" xmlns="http://www.w3.org/2000/svg">
<g clip-path="url(#clip0_188_11011)">
<path d="M13.2734 24.7816C20.6039 24.7816 26.5461 19.4092 26.5461 12.7816V4.38162C26.5461 3.42684 26.1266 2.51116 25.3799 1.83603C24.6331 1.1609 23.6204 0.781616 22.5643 0.781616L13.937 0.781616V6.04602C13.937 7.24722 14.018 8.49162 14.7148 9.51402C15.2137 10.2467 15.881 10.8739 16.6715 11.3529C17.4621 11.8319 18.3573 12.1516 19.2966 12.2902L19.5507 12.3274C19.6555 12.3598 19.7465 12.421 19.8109 12.5024C19.8753 12.5839 19.9099 12.6815 19.9099 12.7816C19.9099 12.8817 19.8753 12.9794 19.8109 13.0608C19.7465 13.1422 19.6555 13.2034 19.5507 13.2358L19.2966 13.273C17.9243 13.4757 16.6571 14.063 15.6739 14.9519C14.6906 15.8408 14.0411 16.9865 13.8169 18.2272L13.7758 18.457C13.74 18.5518 13.6723 18.634 13.5822 18.6922C13.4921 18.7505 13.3841 18.7818 13.2734 18.7818C13.1627 18.7818 13.0547 18.7505 12.9646 18.6922C12.8745 18.634 12.8068 18.5518 12.771 18.457L12.7299 18.2272C12.5765 17.3781 12.2229 16.5687 11.6931 15.8539C11.1633 15.1392 10.4696 14.5359 9.65924 14.0848C8.5284 13.4548 7.15202 13.3816 5.82342 13.3816H0.0166016C0.363683 19.7302 6.16586 24.7816 13.2734 24.7816Z" fill="#697D94"/>
<path d="M0 12.1816H5.82275C7.15135 12.1816 8.52773 12.1084 9.65856 11.4784C10.5425 10.986 11.2867 10.3132 11.8313 9.51402C12.5281 8.49162 12.6091 7.24722 12.6091 6.04602V0.781616H3.98182C2.92577 0.781616 1.91298 1.1609 1.16625 1.83603C0.419512 2.51116 0 3.42684 0 4.38162L0 12.1816ZM30.8292 1.98162C30.8292 2.29988 30.6894 2.6051 30.4405 2.83014C30.1916 3.05519 29.854 3.18162 29.502 3.18162C29.1499 3.18162 28.8123 3.05519 28.5634 2.83014C28.3145 2.6051 28.1747 2.29988 28.1747 1.98162C28.1747 1.66336 28.3145 1.35813 28.5634 1.13309C28.8123 0.908044 29.1499 0.781616 29.502 0.781616C29.854 0.781616 30.1916 0.908044 30.4405 1.13309C30.6894 1.35813 30.8292 1.66336 30.8292 1.98162ZM140.499 8.04402C144.21 8.04402 146 10.387 146 13.1008V18.1978H142.117V13.7056C142.117 12.4756 141.621 11.4604 140.197 11.4604C138.774 11.4604 138.299 12.4756 138.299 13.7056V18.1972H134.416V13.7056C134.416 12.4756 133.942 11.4604 132.518 11.4604C131.094 11.4604 130.598 12.4756 130.598 13.7056V18.1972H126.715V13.1002C126.715 10.3864 128.505 8.04342 132.216 8.04342C134.244 8.04342 135.71 8.76582 136.379 9.95682C137.091 8.76582 138.644 8.04282 140.499 8.04282V8.04402ZM119.738 15.0736C120.989 15.0736 121.528 14.0386 121.528 12.808V8.43402H125.411V13.2376C125.411 16.108 123.556 18.4906 119.738 18.4906C115.919 18.4906 114.064 16.1086 114.064 13.2376V8.43402H117.947V12.808C117.947 14.038 118.486 15.0736 119.738 15.0736ZM108.355 18.5098C105.918 18.5098 104.343 17.7484 103.415 16.2646L106.22 14.839C106.608 15.4636 107.19 15.7762 108.161 15.7762C108.959 15.7762 109.325 15.5224 109.325 15.2098C109.325 14.0188 103.631 15.2296 103.631 11.4418C103.631 9.60582 105.356 8.12202 108.29 8.12202C110.857 8.12202 112.259 9.25422 112.885 10.348L110.081 11.7928C109.844 11.2072 109.11 10.8556 108.376 10.8556C107.816 10.8556 107.514 11.0704 107.514 11.3632C107.514 12.574 113.208 11.461 113.208 15.1318C113.208 17.182 110.987 18.5098 108.355 18.5098ZM94.7892 22.6888H90.9062V13.2964C90.9062 10.3084 93.3869 8.14122 96.8385 8.14122C100.204 8.14122 102.771 10.465 102.771 13.2964C102.771 16.4206 100.484 18.4906 97.0542 18.4906C96.2558 18.4906 95.4581 18.2758 94.7892 17.9434V22.6888ZM96.8385 15.1906C98.0682 15.1906 98.8878 14.3314 98.8878 13.3156C98.8878 12.2812 98.0682 11.4412 96.8385 11.4412C95.6088 11.4412 94.7892 12.2812 94.7892 13.3162C94.7892 14.3314 95.6088 15.1906 96.8385 15.1906ZM87.0167 7.39962C85.7438 7.39962 84.6873 6.44262 84.6873 5.29062C84.6873 4.13862 85.7438 3.18162 87.0167 3.18162C88.2895 3.18162 89.3467 4.13862 89.3467 5.29062C89.3467 6.44262 88.2895 7.39962 87.0167 7.39962ZM85.0755 8.43402H88.9585V18.1978H85.0755V8.43402ZM77.6255 18.4906C74.2602 18.4906 71.6933 16.1476 71.6933 13.2964C71.6933 10.465 74.2602 8.12202 77.6255 8.12202C80.9909 8.12202 83.5578 10.465 83.5578 13.2964C83.5578 16.1476 80.9909 18.4906 77.6255 18.4906ZM77.6255 15.1906C78.8553 15.1906 79.6749 14.3314 79.6749 13.3156C79.6749 12.2812 78.8553 11.422 77.6255 11.422C76.3958 11.422 75.5762 12.2812 75.5762 13.3156C75.5762 14.3314 76.3958 15.1906 77.6255 15.1906ZM64.3615 22.9816C61.687 22.9816 59.7452 21.9076 58.7531 19.9936L61.967 18.4318C62.3121 19.096 62.9592 19.7794 64.2964 19.7794C65.6993 19.7794 66.6264 18.9784 66.7346 17.5726C66.217 17.983 65.3967 18.295 64.1677 18.295C61.1687 18.295 58.7524 16.2058 58.7524 13.2766C58.7524 10.4458 61.32 8.14122 64.6853 8.14122C68.1369 8.14122 70.6176 10.309 70.6176 13.2964V17.1628C70.6176 20.6776 67.9205 22.9816 64.3615 22.9816ZM64.6203 14.9956C65.785 14.9956 66.6696 14.2726 66.6696 13.1986C66.6696 12.1444 65.7856 11.4412 64.6203 11.4412C63.4768 11.4412 62.571 12.1444 62.571 13.1992C62.571 14.2732 63.4768 14.995 64.6203 14.995V14.9956ZM52.1665 18.4906C48.8012 18.4906 46.2336 16.1476 46.2336 13.2964C46.2336 10.465 48.8012 8.12202 52.1665 8.12202C55.5311 8.12202 58.0987 10.465 58.0987 13.2964C58.0987 16.1476 55.5318 18.4906 52.1665 18.4906ZM52.1665 15.1906C53.3962 15.1906 54.2158 14.3314 54.2158 13.3156C54.2158 12.2812 53.3962 11.422 52.1665 11.422C50.9367 11.422 50.1172 12.2812 50.1172 13.3156C50.1172 14.3314 50.9367 15.1906 52.1665 15.1906ZM39.1632 5.01762V14.878H45.5918V18.1978H38.6236C36.1649 18.1978 35.1727 17.026 35.1727 15.1708V5.01762H39.1632Z" fill="#697D94"/>
</g>
<defs>
<clipPath id="clip0_188_11011">
<rect width="146" height="24" fill="white" transform="translate(0 0.781616)"/>
</clipPath>
</defs>
</svg>
