<svg width="124" height="48" viewBox="0 0 124 48" fill="none" xmlns="http://www.w3.org/2000/svg">
<path d="M25.2715 24.6152C25.2715 22.8994 26.2985 21.7041 27.8681 21.7041C29.4377 21.7041 30.4647 22.8994 30.4647 24.6152C30.4647 26.3118 29.4377 27.5263 27.8681 27.5263C26.2985 27.5263 25.2715 26.3118 25.2715 24.6152Z" fill="#697D94"/>
<path d="M38.5456 21.6271C37.0535 21.6271 36.0459 22.7838 36.0459 24.3647C36.0459 25.9648 37.0729 27.1601 38.5456 27.1601C40.1733 27.1601 41.2584 25.9456 41.2584 24.3647C41.2584 22.8031 40.1733 21.6271 38.5456 21.6271Z" fill="#697D94"/>
<path d="M47.1953 24.6152C47.1953 22.8994 48.2224 21.7041 49.792 21.7041C51.3615 21.7041 52.3885 22.8994 52.3885 24.6152C52.3885 26.3118 51.3615 27.5263 49.792 27.5263C48.2224 27.5263 47.1953 26.3118 47.1953 24.6152Z" fill="#697D94"/>
<path d="M62.9863 24.6345C62.9863 22.9187 64.0327 21.7234 65.6798 21.7234C67.3269 21.7234 68.3151 22.938 68.3151 24.6345C68.3151 26.331 67.3269 27.5263 65.6798 27.5263C64.0327 27.5263 62.9863 26.3503 62.9863 24.6345Z" fill="#697D94"/>
<path fill-rule="evenodd" clip-rule="evenodd" d="M62.0001 44.7846C94.9246 44.7846 121.615 35.4667 121.615 23.9724C121.615 12.4781 94.9246 3.16016 62.0001 3.16016C29.0755 3.16016 2.38477 12.4781 2.38477 23.9724C2.38477 35.4667 29.0755 44.7846 62.0001 44.7846ZM21.4412 29.3964V15.0529H19.0771V29.3964H21.4412ZM22.8881 24.6152C22.8881 27.5456 24.8646 29.6278 27.8682 29.6278C30.8717 29.6278 32.8482 27.5456 32.8482 24.6152C32.8482 21.6848 30.8717 19.6027 27.8682 19.6027C24.8646 19.6027 22.8881 21.6848 22.8881 24.6152ZM38.1389 29.2036C35.4454 29.2036 33.6432 27.1986 33.6432 24.4224C33.6432 21.627 35.4842 19.5641 38.2164 19.5641C39.631 19.5641 40.8324 20.1618 41.4137 21.1643L41.5493 19.8726H43.6421V28.9145C43.6421 32.057 41.6656 34.0812 38.5652 34.0812C35.9298 34.0812 34.0114 32.4618 33.7014 29.9748H36.0849C36.2205 31.2279 37.2282 31.9413 38.7008 31.9413C40.3479 31.9413 41.3362 30.9002 41.3362 29.3385V27.7192C40.7355 28.6445 39.5341 29.2036 38.1389 29.2036ZM44.812 24.6152C44.812 27.5456 46.7886 29.6278 49.7921 29.6278C52.7956 29.6278 54.7721 27.5456 54.7721 24.6152C54.7721 21.6848 52.7956 19.6027 49.7921 19.6027C46.7886 19.6027 44.812 21.6848 44.812 24.6152ZM58.7451 16.5181C58.7451 17.3085 58.1057 17.9255 57.3306 17.9255C56.5361 17.9255 55.9354 17.3085 55.9354 16.5181C55.9354 15.7469 56.5361 15.13 57.3306 15.13C58.1057 15.13 58.7451 15.7469 58.7451 16.5181ZM58.5126 19.8726V29.3964H56.1486V19.8726H58.5126ZM60.5837 33.8113H62.8897V28.0855C63.4904 29.0687 64.7887 29.647 66.2227 29.647C69.0518 29.647 70.7376 27.4878 70.6988 24.5188C70.6407 21.5306 68.9161 19.5834 66.2033 19.5834C64.75 19.5834 63.4323 20.2196 62.851 21.3185L62.7153 19.8726H60.5837V33.8113ZM75.1359 29.647C72.8493 29.647 71.3766 28.4324 71.2992 26.5431H73.4501C73.4501 27.3721 74.0507 27.8541 75.0971 27.8541C75.9692 27.8541 76.6861 27.5071 76.6861 26.7552C76.6861 26.2154 76.2985 25.9262 75.6784 25.7527L74.012 25.3285C72.1711 24.8466 71.4542 23.8248 71.4542 22.5909C71.4542 20.7787 72.985 19.5834 75.039 19.5834C77.1124 19.5834 78.527 20.7787 78.6045 22.6681H76.4536C76.4536 21.8391 75.8722 21.3378 74.9809 21.3378C74.1283 21.3378 73.6051 21.8005 73.6051 22.456C73.6051 23.073 74.0895 23.3235 74.8065 23.5163L76.4924 23.9212C78.062 24.3067 78.9145 25.2321 78.9145 26.601C78.9145 28.4517 77.3837 29.647 75.1359 29.647ZM83.8184 29.647C85.1162 29.647 86.3562 29.0494 86.9184 28.1626L87.0738 29.3964H89.2826V19.8726H86.9184V24.8659C86.9184 26.5817 86.2595 27.5456 84.7095 27.5456C83.5084 27.5456 82.6751 26.9673 82.6751 25.0009V19.8726H80.3107V25.8298C80.3107 28.1048 81.5509 29.647 83.8184 29.647ZM93.7334 23.9212V29.3964H91.3691V19.8726H93.5391L93.6557 20.9523C94.2178 20.104 95.2255 19.5834 96.349 19.5834C97.9378 19.5834 98.9844 20.2774 99.5077 21.3956C99.9731 20.2774 101.116 19.5834 102.57 19.5834C104.895 19.5834 106.115 20.9716 106.115 23.1693V29.3964H103.829V23.7091C103.829 22.3596 103.093 21.6463 101.95 21.6463C100.825 21.6463 99.9342 22.3789 99.9342 23.9405V29.3964H97.6278V23.7091C97.6278 22.3596 96.8921 21.6463 95.7678 21.6463C94.6444 21.6463 93.7334 22.3789 93.7334 23.9212Z" fill="#697D94"/>
</svg>
